<svg width="173" height="64" viewBox="0 0 173 64" fill="none" xmlns="http://www.w3.org/2000/svg">
<path d="M66.4128 57.9297C66.1128 57.9697 65.8328 57.9997 65.6828 57.9397C64.6828 57.5197 64.0928 57.0797 63.9828 56.6697C63.8628 56.2397 64.1628 55.5297 64.8628 54.5597C66.3228 52.3597 66.6028 46.1697 64.3128 44.1797C63.7928 43.7297 62.4728 42.9397 60.5328 44.2497C57.3328 41.7397 52.4028 41.7297 49.2828 44.3797C44.1528 48.9197 44.6728 55.7597 48.1328 59.7597C49.7228 61.5997 52.0328 62.7897 54.6528 62.8397C56.7228 62.8797 59.2128 62.0097 61.4928 59.9797C61.8028 60.3097 62.3228 60.8597 62.9828 61.1297C63.9028 61.6597 66.1928 62.4597 67.7528 61.6797C68.5928 61.2597 68.9228 60.4997 68.9828 60.1897L69.2828 59.9397L69.0128 59.2097C68.4428 57.6397 67.0128 57.8197 66.4028 57.8997L66.4128 57.9297ZM58.4628 47.8597C58.2228 50.2797 58.4928 53.8797 59.1928 55.3597C59.7828 56.6297 59.3928 56.6897 59.3928 56.6897C57.8928 59.0097 55.5528 59.7397 53.1228 58.6397C50.5828 57.4897 48.5328 54.4897 49.5528 50.8897C50.0028 48.5897 51.9828 46.4697 54.3128 46.1697C56.2028 45.9297 57.4228 46.4297 58.4628 47.8597ZM62.2128 50.1297C62.2028 49.5597 62.2128 49.0197 62.2428 48.5897C62.2628 49.0597 62.2428 49.5997 62.2128 50.1297Z" fill="#429400"/>
<path d="M99.3527 55.4898L98.5627 55.3598C97.5527 55.1898 96.8227 55.8198 96.2927 56.2698C96.1127 56.4198 95.8427 56.6498 95.7327 56.6898L95.5527 56.7298L95.3927 56.8298C93.3727 58.1598 90.8327 57.2998 89.2127 55.8598C87.8827 54.6698 86.6827 52.6098 87.3527 50.4698C90.8627 50.7698 96.2127 50.4698 98.4427 46.3598C99.0927 44.7198 98.5927 42.2898 96.6027 41.4198C93.5227 40.0698 87.9327 42.1598 85.0527 45.8498C82.1927 49.5198 82.3927 53.9298 85.6027 57.9798C86.7027 60.0398 89.9827 61.1598 93.0627 61.1598C94.1527 61.1598 95.2127 61.0198 96.1427 60.7298C98.5327 59.9898 99.7727 58.3198 99.4627 56.2598L99.3427 55.4698L99.3527 55.4898ZM93.9327 45.9098C92.8427 46.6098 91.1527 46.8698 89.6227 46.8098C90.6927 45.8498 92.0627 45.0298 93.3327 44.8798C93.8727 44.8098 94.3527 44.8798 94.7827 45.0598C94.5927 45.3898 94.3027 45.6698 93.9227 45.9098H93.9327Z" fill="#429400"/>
<path d="M152.073 46.2998C151.773 46.3398 151.493 46.3698 151.343 46.3098C150.343 45.8898 149.753 45.4498 149.643 45.0398C149.523 44.6098 149.823 43.8998 150.523 42.9298C151.983 40.7298 152.263 34.5398 149.973 32.5498C149.453 32.0998 148.133 31.3098 146.193 32.6198C142.993 30.1098 138.063 30.0998 134.943 32.7498C129.813 37.2898 130.333 44.1298 133.793 48.1298C135.383 49.9698 137.693 51.1598 140.313 51.2098C142.383 51.2498 144.873 50.3798 147.153 48.3498C147.463 48.6798 147.983 49.2298 148.643 49.4998C149.563 50.0298 151.853 50.8298 153.413 50.0498C154.253 49.6298 154.583 48.8698 154.643 48.5598L154.943 48.3098L154.673 47.5798C154.103 46.0098 152.673 46.1898 152.063 46.2698L152.073 46.2998ZM144.123 36.2298C143.883 38.6498 144.153 42.2498 144.853 43.7298C145.443 44.9998 145.053 45.0598 145.053 45.0598C143.553 47.3798 141.213 48.1098 138.783 47.0098C136.243 45.8598 134.193 42.8598 135.213 39.2598C135.663 36.9598 137.643 34.8398 139.973 34.5398C141.863 34.2998 143.083 34.7998 144.123 36.2298ZM147.883 38.5098C147.873 37.9398 147.883 37.3998 147.913 36.9698C147.933 37.4398 147.913 37.9798 147.883 38.5098Z" fill="#429400"/>
<path d="M132.133 48.5997L131.343 48.4697C130.333 48.2997 129.603 48.9297 129.073 49.3797C128.893 49.5297 128.623 49.7597 128.513 49.7997L128.333 49.8397L128.173 49.9397C126.153 51.2697 123.613 50.4097 121.993 48.9697C120.663 47.7797 119.463 45.7197 120.133 43.5797C123.643 43.8797 128.993 43.5797 131.223 39.4697C131.873 37.8297 131.373 35.3997 129.383 34.5297C126.303 33.1797 120.713 35.2697 117.833 38.9597C114.973 42.6297 115.173 47.0397 118.383 51.0897C119.483 53.1497 122.763 54.2697 125.843 54.2697C126.933 54.2697 127.993 54.1297 128.923 53.8397C131.313 53.0997 132.553 51.4297 132.243 49.3697L132.123 48.5797L132.133 48.5997ZM126.723 39.0197C125.633 39.7197 123.943 39.9797 122.413 39.9197C123.483 38.9597 124.853 38.1397 126.123 37.9897C126.663 37.9197 127.143 37.9897 127.573 38.1697C127.383 38.4997 127.093 38.7797 126.713 39.0197H126.723Z" fill="#429400"/>
<path d="M77.6526 39.8897L73.7026 39.7997L73.6126 51.0797C73.6126 53.9997 73.7226 55.8997 73.9426 56.7897C74.1626 57.6497 74.8026 58.1497 75.8426 58.0697C76.9626 57.9897 77.9626 57.3297 78.9426 57.0697C79.5826 56.8997 79.9426 57.3997 79.9426 58.0697C79.9426 58.7397 79.3526 59.4197 78.1826 60.1197C77.0026 60.8197 75.8526 61.1697 74.7126 61.1697C71.9526 61.1697 70.5726 59.1397 70.5726 55.0797L70.5226 39.7997C69.4726 39.8897 68.7426 39.9397 68.3326 39.9397C66.7426 39.9397 65.9526 39.4097 65.9526 38.3697C65.9526 37.3297 66.7526 36.7997 68.3326 36.7997L70.4326 36.8897L70.3426 31.5597C70.3426 29.9697 70.9426 29.1797 72.1526 29.1797C73.3626 29.1797 73.9626 29.9797 73.9626 31.5597L73.8226 36.9397L77.6726 36.7497C79.2626 36.7497 80.0526 37.2897 80.0526 38.3697C80.0526 39.3797 79.2526 39.8897 77.6726 39.8897H77.6526Z" fill="#429400"/>
<path d="M170.243 44.1899L165.713 44.2799L165.603 32.9999C165.603 30.0799 165.733 28.1799 165.983 27.2899C166.233 26.4299 166.963 26.0099 168.163 26.0099C168.743 26.0099 169.433 26.1699 170.243 26.4899C171.043 26.8399 171.533 27.0199 171.713 27.0199C172.483 27.0199 172.853 26.6899 172.853 26.0199C172.853 25.3499 172.183 24.6699 170.833 23.9699C169.483 23.2699 168.163 22.9199 166.843 22.9199C163.673 22.9199 162.093 24.9499 162.093 29.0099L162.043 44.2899C160.843 44.1999 160.003 44.1499 159.533 44.1499C157.713 44.1499 156.803 44.6799 156.803 45.7199C156.803 46.7599 157.713 47.2899 159.533 47.2899L161.933 47.1999L161.823 61.1499C161.823 62.7399 162.513 63.5299 163.903 63.5299C165.293 63.5299 165.973 62.7299 165.973 61.1499L165.813 47.1599L170.233 47.3499C172.053 47.3499 172.963 46.8099 172.963 45.7299C172.963 44.7199 172.053 44.2099 170.233 44.2099L170.243 44.1899Z" fill="#429400"/>
<path d="M44.3326 33.3498C41.8126 27.6398 35.0726 22.7798 32.1126 21.0398C26.8026 17.4998 19.4226 14.4798 15.8226 13.1698C13.2326 12.1798 10.9126 11.3198 8.88262 10.5798C8.88262 10.5798 5.45262 10.2998 5.26262 10.2998H4.15261C2.01261 10.2598 1.22262 10.6398 0.732617 10.9498C0.0726166 11.4098 -0.217383 11.9698 0.182617 13.0798C0.372617 13.3898 1.28262 15.3298 1.76262 15.8598L5.46262 61.9598C5.52262 61.9598 5.99262 61.9898 6.85262 62.0498C13.6826 62.5298 17.7826 62.3598 21.7526 61.8698C27.7926 61.0598 32.6526 59.2398 35.1726 57.8898C40.7026 55.3798 43.7126 50.8798 44.8026 48.6398C47.7226 41.9398 45.7126 35.9598 44.3426 33.3698V33.3498H44.3326ZM26.1826 57.7898C23.1226 58.5798 19.1026 59.1998 8.87262 58.5298C8.87262 57.5398 7.02262 15.3898 7.02262 15.3898C9.18262 15.3898 11.4926 15.6698 13.9626 16.2198C27.6926 19.8898 32.9126 25.5298 34.9726 27.5098C40.8726 34.1498 41.0826 38.0698 41.0826 40.4698C41.0826 43.7398 40.5426 53.6698 26.1826 57.7798V57.7898Z" fill="#429400"/>
<path d="M106.033 0.02L109.553 58.71C115.043 58.71 120.543 58.37 126.033 57.69C131.593 56.95 137.263 56.27 143.063 55.65L143.433 58.7C143.373 58.7 142.783 58.79 141.673 58.98C140.623 59.1 127.043 60.68 124.823 60.93C122.603 61.17 114.643 62.1 113.163 62.23L110.203 62.32C108.843 62.32 107.733 61.61 106.873 60.19C106.013 58.71 105.293 56.74 104.743 54.26C103.663 49.98 103.113 38.99 102.983 35.46C102.863 31.94 102.863 8.61 102.793 6.02C102.793 3.43 102.703 1.42 102.513 0H106.033V0.02Z" fill="#429400"/>
<path d="M75.4625 32.1996C75.6225 32.1796 75.8325 32.0796 75.9125 31.8696C76.1525 31.2496 76.4225 29.5196 76.5325 29.1396C76.8425 28.0596 77.5425 26.7096 79.5625 27.1496C82.4425 27.7596 84.2125 29.8096 83.7225 29.4796C79.6625 26.7596 77.8825 28.2596 76.7425 29.5796C76.4025 29.9796 76.2625 30.2296 76.9225 30.9396C77.7625 31.8596 79.5325 33.0696 80.6225 33.0496C82.8825 33.0196 84.2125 30.2296 84.9825 30.7196C85.8525 31.2796 84.6625 27.1696 80.0325 25.5996C77.6525 24.7896 75.9525 25.8296 75.7925 28.7596C75.7725 29.0796 75.9025 30.5496 75.6425 30.8096C74.6325 31.8296 74.5225 32.3396 75.4525 32.2096L75.4625 32.1996Z" fill="#B8EA00"/>
<path d="M151.633 32.1797C151.693 32.0297 151.853 31.8397 152.103 31.8097C152.833 31.6997 154.733 31.7897 155.163 31.7697C156.383 31.6897 158.003 31.2797 158.053 29.2097C158.123 26.2597 156.383 24.1097 156.613 24.6597C158.483 29.1997 156.443 30.6397 154.753 31.4697C154.243 31.7197 153.943 31.7997 153.353 31.0097C152.593 29.9997 151.743 28.0097 152.033 26.9497C152.633 24.7397 155.943 24.0097 155.613 23.1497C155.243 22.1797 159.313 24.1997 159.823 29.0597C160.083 31.5597 158.553 33.0097 155.393 32.5697C155.053 32.5197 153.513 32.0897 153.173 32.2897C151.833 33.0697 151.263 33.0797 151.633 32.1897H151.623L151.633 32.1797Z" fill="#B8EA00"/>
</svg>
