<svg width="226" height="64" viewBox="0 0 226 64" fill="none" xmlns="http://www.w3.org/2000/svg">
<path d="M38.6803 57.863C36.4204 57.863 33.8663 57.863 31.0646 58.0465C23.9597 58.5052 14.3472 57.6948 12.3659 47.6644C9.54873 33.414 17.7217 21.7323 16.8703 24.5762C9.85831 47.9244 22.7679 53.4441 33.1853 56.3034C36.3275 57.1596 38.0921 57.3584 40.8629 53.0924C44.4231 47.6338 47.6272 37.4353 45.0887 32.4507C39.8103 22.191 20.1828 20.9525 21.3593 16.5948C22.7059 11.6407 0.926888 24.2704 2.04138 48.2302C2.67602 61.869 14.9354 67.6946 36.5133 60.2941C38.6958 59.5449 38.6803 57.8783 38.6803 57.8783V57.863Z" fill="#B8EA00"/>
<path d="M119.413 57.9297C119.113 57.9697 118.833 57.9997 118.683 57.9397C117.683 57.5197 117.093 57.0797 116.983 56.6697C116.863 56.2397 117.163 55.5297 117.863 54.5597C119.323 52.3597 119.603 46.1697 117.313 44.1797C116.793 43.7297 115.473 42.9397 113.533 44.2497C110.333 41.7397 105.403 41.7297 102.283 44.3797C97.1528 48.9197 97.6728 55.7597 101.133 59.7597C102.723 61.5997 105.033 62.7897 107.653 62.8397C109.723 62.8797 112.213 62.0097 114.493 59.9797C114.803 60.3097 115.323 60.8597 115.983 61.1297C116.903 61.6597 119.193 62.4597 120.753 61.6797C121.593 61.2597 121.923 60.4997 121.983 60.1897L122.283 59.9397L122.013 59.2097C121.443 57.6397 120.013 57.8197 119.403 57.8997L119.413 57.9297ZM111.463 47.8597C111.223 50.2797 111.493 53.8797 112.193 55.3597C112.783 56.6297 112.393 56.6897 112.393 56.6897C110.893 59.0097 108.553 59.7397 106.123 58.6397C103.583 57.4897 101.533 54.4897 102.553 50.8897C103.003 48.5897 104.983 46.4697 107.313 46.1697C109.203 45.9297 110.423 46.4297 111.463 47.8597ZM115.213 50.1297C115.203 49.5597 115.213 49.0197 115.243 48.5897C115.263 49.0597 115.243 49.5997 115.213 50.1297Z" fill="#429400"/>
<path d="M152.353 55.4898L151.563 55.3598C150.553 55.1898 149.823 55.8198 149.293 56.2698C149.113 56.4198 148.843 56.6498 148.733 56.6898L148.553 56.7298L148.393 56.8298C146.373 58.1598 143.833 57.2998 142.213 55.8598C140.883 54.6698 139.683 52.6098 140.353 50.4698C143.863 50.7698 149.213 50.4698 151.443 46.3598C152.093 44.7198 151.593 42.2898 149.603 41.4198C146.523 40.0698 140.933 42.1598 138.053 45.8498C135.193 49.5198 135.393 53.9298 138.603 57.9798C139.703 60.0398 142.983 61.1598 146.063 61.1598C147.153 61.1598 148.213 61.0198 149.143 60.7298C151.533 59.9898 152.773 58.3198 152.463 56.2598L152.343 55.4698L152.353 55.4898ZM146.933 45.9098C145.843 46.6098 144.153 46.8698 142.623 46.8098C143.693 45.8498 145.063 45.0298 146.333 44.8798C146.873 44.8098 147.353 44.8798 147.783 45.0598C147.593 45.3898 147.303 45.6698 146.923 45.9098H146.933Z" fill="#429400"/>
<path d="M205.073 46.2998C204.773 46.3398 204.493 46.3698 204.343 46.3098C203.343 45.8898 202.753 45.4498 202.643 45.0398C202.523 44.6098 202.823 43.8998 203.523 42.9298C204.983 40.7298 205.263 34.5398 202.973 32.5498C202.453 32.0998 201.133 31.3098 199.193 32.6198C195.993 30.1098 191.063 30.0998 187.943 32.7498C182.813 37.2898 183.333 44.1298 186.793 48.1298C188.383 49.9698 190.693 51.1598 193.313 51.2098C195.383 51.2498 197.873 50.3798 200.153 48.3498C200.463 48.6798 200.983 49.2298 201.643 49.4998C202.563 50.0298 204.853 50.8298 206.413 50.0498C207.253 49.6298 207.583 48.8698 207.643 48.5598L207.943 48.3098L207.673 47.5798C207.103 46.0098 205.673 46.1898 205.063 46.2698L205.073 46.2998ZM197.123 36.2298C196.883 38.6498 197.153 42.2498 197.853 43.7298C198.443 44.9998 198.053 45.0598 198.053 45.0598C196.553 47.3798 194.213 48.1098 191.783 47.0098C189.243 45.8598 187.193 42.8598 188.213 39.2598C188.663 36.9598 190.643 34.8398 192.973 34.5398C194.863 34.2998 196.083 34.7998 197.123 36.2298ZM200.883 38.5098C200.873 37.9398 200.883 37.3998 200.913 36.9698C200.933 37.4398 200.913 37.9798 200.883 38.5098Z" fill="#429400"/>
<path d="M185.133 48.5997L184.343 48.4697C183.333 48.2997 182.603 48.9297 182.073 49.3797C181.893 49.5297 181.623 49.7597 181.513 49.7997L181.333 49.8397L181.173 49.9397C179.153 51.2697 176.613 50.4097 174.993 48.9697C173.663 47.7797 172.463 45.7197 173.133 43.5797C176.643 43.8797 181.993 43.5797 184.223 39.4697C184.873 37.8297 184.373 35.3997 182.383 34.5297C179.303 33.1797 173.713 35.2697 170.833 38.9597C167.973 42.6297 168.173 47.0397 171.383 51.0897C172.483 53.1497 175.763 54.2697 178.843 54.2697C179.933 54.2697 180.993 54.1297 181.923 53.8397C184.313 53.0997 185.553 51.4297 185.243 49.3697L185.123 48.5797L185.133 48.5997ZM179.723 39.0197C178.633 39.7197 176.943 39.9797 175.413 39.9197C176.483 38.9597 177.853 38.1397 179.123 37.9897C179.663 37.9197 180.143 37.9897 180.573 38.1697C180.383 38.4997 180.093 38.7797 179.713 39.0197H179.723Z" fill="#429400"/>
<path d="M130.653 39.8897L126.703 39.7997L126.613 51.0797C126.613 53.9997 126.723 55.8997 126.943 56.7897C127.163 57.6497 127.803 58.1497 128.843 58.0697C129.963 57.9897 130.963 57.3297 131.943 57.0697C132.583 56.8997 132.943 57.3997 132.943 58.0697C132.943 58.7397 132.353 59.4197 131.183 60.1197C130.003 60.8197 128.853 61.1697 127.713 61.1697C124.953 61.1697 123.573 59.1397 123.573 55.0797L123.523 39.7997C122.473 39.8897 121.743 39.9397 121.333 39.9397C119.743 39.9397 118.953 39.4097 118.953 38.3697C118.953 37.3297 119.753 36.7997 121.333 36.7997L123.433 36.8897L123.343 31.5597C123.343 29.9697 123.943 29.1797 125.153 29.1797C126.363 29.1797 126.963 29.9797 126.963 31.5597L126.823 36.9397L130.673 36.7497C132.263 36.7497 133.053 37.2897 133.053 38.3697C133.053 39.3797 132.253 39.8897 130.673 39.8897H130.653Z" fill="#429400"/>
<path d="M223.243 44.1899L218.713 44.2799L218.603 32.9999C218.603 30.0799 218.733 28.1799 218.983 27.2899C219.233 26.4299 219.963 26.0099 221.163 26.0099C221.743 26.0099 222.433 26.1699 223.243 26.4899C224.043 26.8399 224.533 27.0199 224.713 27.0199C225.483 27.0199 225.853 26.6899 225.853 26.0199C225.853 25.3499 225.183 24.6699 223.833 23.9699C222.483 23.2699 221.163 22.9199 219.843 22.9199C216.673 22.9199 215.093 24.9499 215.093 29.0099L215.043 44.2899C213.843 44.1999 213.003 44.1499 212.533 44.1499C210.713 44.1499 209.803 44.6799 209.803 45.7199C209.803 46.7599 210.713 47.2899 212.533 47.2899L214.933 47.1999L214.823 61.1499C214.823 62.7399 215.513 63.5299 216.903 63.5299C218.293 63.5299 218.973 62.7299 218.973 61.1499L218.813 47.1599L223.233 47.3499C225.053 47.3499 225.963 46.8099 225.963 45.7299C225.963 44.7199 225.053 44.2099 223.233 44.2099L223.243 44.1899Z" fill="#429400"/>
<path d="M97.3326 33.3498C94.8126 27.6398 88.0726 22.7798 85.1126 21.0398C79.8026 17.4998 72.4226 14.4798 68.8226 13.1698C66.2326 12.1798 63.9126 11.3198 61.8826 10.5798C61.8826 10.5798 58.4526 10.2998 58.2626 10.2998H57.1526C55.0126 10.2598 54.2226 10.6398 53.7326 10.9498C53.0726 11.4098 52.7826 11.9698 53.1826 13.0798C53.3726 13.3898 54.2826 15.3298 54.7626 15.8598L58.4626 61.9598C58.5226 61.9598 58.9926 61.9898 59.8526 62.0498C66.6826 62.5298 70.7826 62.3598 74.7526 61.8698C80.7926 61.0598 85.6526 59.2398 88.1726 57.8898C93.7026 55.3798 96.7126 50.8798 97.8026 48.6398C100.723 41.9398 98.7126 35.9598 97.3426 33.3698V33.3498H97.3326ZM79.1826 57.7898C76.1226 58.5798 72.1026 59.1998 61.8726 58.5298C61.8726 57.5398 60.0226 15.3898 60.0226 15.3898C62.1826 15.3898 64.4926 15.6698 66.9626 16.2198C80.6926 19.8898 85.9126 25.5298 87.9726 27.5098C93.8726 34.1498 94.0826 38.0698 94.0826 40.4698C94.0826 43.7398 93.5426 53.6698 79.1826 57.7798V57.7898Z" fill="#429400"/>
<path d="M159.033 0.02L162.553 58.71C168.043 58.71 173.543 58.37 179.033 57.69C184.593 56.95 190.263 56.27 196.063 55.65L196.433 58.7C196.373 58.7 195.783 58.79 194.673 58.98C193.623 59.1 180.043 60.68 177.823 60.93C175.603 61.17 167.643 62.1 166.163 62.23L163.203 62.32C161.843 62.32 160.733 61.61 159.873 60.19C159.013 58.71 158.293 56.74 157.743 54.26C156.663 49.98 156.113 38.99 155.983 35.46C155.863 31.94 155.863 8.61 155.793 6.02C155.793 3.43 155.703 1.42 155.513 0H159.033V0.02Z" fill="#429400"/>
<path d="M128.463 32.1996C128.623 32.1796 128.833 32.0796 128.913 31.8696C129.153 31.2496 129.423 29.5196 129.533 29.1396C129.843 28.0596 130.543 26.7096 132.563 27.1496C135.443 27.7596 137.213 29.8096 136.723 29.4796C132.663 26.7596 130.883 28.2596 129.743 29.5796C129.403 29.9796 129.263 30.2296 129.923 30.9396C130.763 31.8596 132.533 33.0696 133.623 33.0496C135.883 33.0196 137.213 30.2296 137.983 30.7196C138.853 31.2796 137.663 27.1696 133.033 25.5996C130.653 24.7896 128.953 25.8296 128.793 28.7596C128.773 29.0796 128.903 30.5496 128.643 30.8096C127.633 31.8296 127.523 32.3396 128.453 32.2096L128.463 32.1996Z" fill="#B8EA00"/>
<path d="M204.633 32.1797C204.693 32.0297 204.853 31.8397 205.103 31.8097C205.833 31.6997 207.733 31.7897 208.163 31.7697C209.383 31.6897 211.003 31.2797 211.053 29.2097C211.123 26.2597 209.383 24.1097 209.613 24.6597C211.483 29.1997 209.443 30.6397 207.753 31.4697C207.243 31.7197 206.943 31.7997 206.353 31.0097C205.593 29.9997 204.743 28.0097 205.033 26.9497C205.633 24.7397 208.943 24.0097 208.613 23.1497C208.243 22.1797 212.313 24.1997 212.823 29.0597C213.083 31.5597 211.553 33.0097 208.393 32.5697C208.053 32.5197 206.513 32.0897 206.173 32.2897C204.833 33.0697 204.263 33.0797 204.633 32.1897H204.623L204.633 32.1797Z" fill="#B8EA00"/>
</svg>
